<mxfile host="app.diagrams.net" modified="2024-06-23T08:57:13.618Z" agent="Mozilla/5.0 (Macintosh; Intel Mac OS X 10_15_7) AppleWebKit/605.1.15 (KHTML, like Gecko) Version/17.5 Safari/605.1.15" etag="v1O1uxbrolaL259lsdjA" version="24.6.2" type="github">
  <diagram name="第 1 页" id="6IeeuFqkYJnslTpoebI-">
    <mxGraphModel dx="445" dy="1529" grid="1" gridSize="10" guides="1" tooltips="1" connect="1" arrows="1" fold="1" page="1" pageScale="1" pageWidth="827" pageHeight="1169" math="0" shadow="0">
      <root>
        <mxCell id="0" />
        <mxCell id="1" parent="0" />
        <mxCell id="GOoZsCCYg1d0ssd65Wgo-3" value="" style="endArrow=none;html=1;rounded=0;entryX=0;entryY=0.5;entryDx=0;entryDy=0;exitX=1;exitY=1;exitDx=0;exitDy=0;strokeColor=#ECA8A9;strokeWidth=1.5;movable=1;resizable=1;rotatable=1;deletable=1;editable=1;locked=0;connectable=1;" edge="1" parent="1" source="GOoZsCCYg1d0ssd65Wgo-30" target="GOoZsCCYg1d0ssd65Wgo-29">
          <mxGeometry width="50" height="50" relative="1" as="geometry">
            <mxPoint x="165" y="-957" as="sourcePoint" />
            <mxPoint x="211.875" y="-1002" as="targetPoint" />
          </mxGeometry>
        </mxCell>
        <mxCell id="GOoZsCCYg1d0ssd65Wgo-4" value="" style="endArrow=none;html=1;rounded=0;entryX=0;entryY=1;entryDx=0;entryDy=0;exitX=1;exitY=0;exitDx=0;exitDy=0;strokeColor=#ECA8A9;strokeWidth=1.5;movable=1;resizable=1;rotatable=1;deletable=1;editable=1;locked=0;connectable=1;" edge="1" parent="1" source="GOoZsCCYg1d0ssd65Wgo-29" target="GOoZsCCYg1d0ssd65Wgo-27">
          <mxGeometry width="50" height="50" relative="1" as="geometry">
            <mxPoint x="165" y="-966" as="sourcePoint" />
            <mxPoint x="211.875" y="-1011" as="targetPoint" />
          </mxGeometry>
        </mxCell>
        <mxCell id="GOoZsCCYg1d0ssd65Wgo-5" value="" style="endArrow=none;html=1;rounded=0;entryX=0.5;entryY=1;entryDx=0;entryDy=0;exitX=0.5;exitY=0;exitDx=0;exitDy=0;strokeColor=#F7C97E;strokeWidth=1.5;movable=1;resizable=1;rotatable=1;deletable=1;editable=1;locked=0;connectable=1;" edge="1" parent="1" source="GOoZsCCYg1d0ssd65Wgo-27" target="GOoZsCCYg1d0ssd65Wgo-25">
          <mxGeometry width="50" height="50" relative="1" as="geometry">
            <mxPoint x="165" y="-984" as="sourcePoint" />
            <mxPoint x="211.875" y="-1029" as="targetPoint" />
          </mxGeometry>
        </mxCell>
        <mxCell id="GOoZsCCYg1d0ssd65Wgo-6" value="" style="endArrow=none;html=1;rounded=0;entryX=0.5;entryY=1;entryDx=0;entryDy=0;exitX=0;exitY=0;exitDx=0;exitDy=0;strokeColor=#ECA8A9;strokeWidth=1.5;movable=1;resizable=1;rotatable=1;deletable=1;editable=1;locked=0;connectable=1;" edge="1" parent="1" source="GOoZsCCYg1d0ssd65Wgo-29" target="GOoZsCCYg1d0ssd65Wgo-28">
          <mxGeometry width="50" height="50" relative="1" as="geometry">
            <mxPoint x="343.125" y="-1002" as="sourcePoint" />
            <mxPoint x="183.75" y="-1047" as="targetPoint" />
          </mxGeometry>
        </mxCell>
        <mxCell id="GOoZsCCYg1d0ssd65Wgo-7" value="" style="endArrow=none;html=1;rounded=0;entryX=0;entryY=1;entryDx=0;entryDy=0;exitX=0.5;exitY=0;exitDx=0;exitDy=0;strokeColor=#F7C97E;strokeWidth=1.5;movable=1;resizable=1;rotatable=1;deletable=1;editable=1;locked=0;connectable=1;" edge="1" parent="1" source="GOoZsCCYg1d0ssd65Wgo-29" target="GOoZsCCYg1d0ssd65Wgo-25">
          <mxGeometry width="50" height="50" relative="1" as="geometry">
            <mxPoint x="155.625" y="-1002" as="sourcePoint" />
            <mxPoint x="202.5" y="-1047" as="targetPoint" />
          </mxGeometry>
        </mxCell>
        <mxCell id="GOoZsCCYg1d0ssd65Wgo-8" value="" style="endArrow=none;html=1;rounded=0;entryX=0;entryY=0.5;entryDx=0;entryDy=0;exitX=1;exitY=0;exitDx=0;exitDy=0;strokeColor=#74AED4;strokeWidth=1.5;movable=1;resizable=1;rotatable=1;deletable=1;editable=1;locked=0;connectable=1;" edge="1" parent="1" source="GOoZsCCYg1d0ssd65Wgo-28" target="GOoZsCCYg1d0ssd65Wgo-25">
          <mxGeometry width="50" height="50" relative="1" as="geometry">
            <mxPoint x="183.75" y="-984" as="sourcePoint" />
            <mxPoint x="230.625" y="-1029" as="targetPoint" />
          </mxGeometry>
        </mxCell>
        <mxCell id="GOoZsCCYg1d0ssd65Wgo-9" value="" style="endArrow=none;html=1;rounded=0;entryX=0;entryY=1;entryDx=0;entryDy=0;exitX=0.5;exitY=0;exitDx=0;exitDy=0;strokeColor=#74AED4;strokeWidth=1.5;movable=1;resizable=1;rotatable=1;deletable=1;editable=1;locked=0;connectable=1;" edge="1" parent="1" source="GOoZsCCYg1d0ssd65Wgo-28" target="GOoZsCCYg1d0ssd65Wgo-26">
          <mxGeometry width="50" height="50" relative="1" as="geometry">
            <mxPoint x="165" y="-1029" as="sourcePoint" />
            <mxPoint x="211.875" y="-1074" as="targetPoint" />
          </mxGeometry>
        </mxCell>
        <mxCell id="GOoZsCCYg1d0ssd65Wgo-10" value="" style="endArrow=none;html=1;rounded=0;entryX=1;entryY=1;entryDx=0;entryDy=0;exitX=0;exitY=0;exitDx=0;exitDy=0;strokeColor=#74AED4;strokeWidth=1.5;movable=1;resizable=1;rotatable=1;deletable=1;editable=1;locked=0;connectable=1;" edge="1" parent="1" source="GOoZsCCYg1d0ssd65Wgo-25" target="GOoZsCCYg1d0ssd65Wgo-26">
          <mxGeometry width="50" height="50" relative="1" as="geometry">
            <mxPoint x="165" y="-1011" as="sourcePoint" />
            <mxPoint x="211.875" y="-1056" as="targetPoint" />
          </mxGeometry>
        </mxCell>
        <mxCell id="GOoZsCCYg1d0ssd65Wgo-11" value="" style="endArrow=none;html=1;rounded=0;entryX=0;entryY=1;entryDx=0;entryDy=0;exitX=1;exitY=0.5;exitDx=0;exitDy=0;strokeColor=#74AED4;strokeWidth=1.5;movable=1;resizable=1;rotatable=1;deletable=1;editable=1;locked=0;connectable=1;" edge="1" parent="1" source="GOoZsCCYg1d0ssd65Wgo-37" target="GOoZsCCYg1d0ssd65Wgo-35">
          <mxGeometry width="50" height="50" relative="1" as="geometry">
            <mxPoint x="155.625" y="-1020" as="sourcePoint" />
            <mxPoint x="202.5" y="-1065" as="targetPoint" />
          </mxGeometry>
        </mxCell>
        <mxCell id="GOoZsCCYg1d0ssd65Wgo-12" value="" style="endArrow=none;html=1;rounded=0;entryX=0;entryY=1;entryDx=0;entryDy=0;exitX=1;exitY=0;exitDx=0;exitDy=0;strokeColor=#74AED4;strokeWidth=1.5;movable=1;resizable=1;rotatable=1;deletable=1;editable=1;locked=0;connectable=1;" edge="1" parent="1" source="GOoZsCCYg1d0ssd65Wgo-37" target="GOoZsCCYg1d0ssd65Wgo-33">
          <mxGeometry width="50" height="50" relative="1" as="geometry">
            <mxPoint x="146.25" y="-1029" as="sourcePoint" />
            <mxPoint x="193.125" y="-1074" as="targetPoint" />
          </mxGeometry>
        </mxCell>
        <mxCell id="GOoZsCCYg1d0ssd65Wgo-13" value="" style="endArrow=none;html=1;rounded=0;entryX=0.5;entryY=1;entryDx=0;entryDy=0;exitX=1;exitY=0;exitDx=0;exitDy=0;strokeColor=#74AED4;strokeWidth=1.5;movable=1;resizable=1;rotatable=1;deletable=1;editable=1;locked=0;connectable=1;" edge="1" parent="1" source="GOoZsCCYg1d0ssd65Wgo-35" target="GOoZsCCYg1d0ssd65Wgo-33">
          <mxGeometry width="50" height="50" relative="1" as="geometry">
            <mxPoint x="174.375" y="-1011" as="sourcePoint" />
            <mxPoint x="221.25" y="-1056" as="targetPoint" />
          </mxGeometry>
        </mxCell>
        <mxCell id="GOoZsCCYg1d0ssd65Wgo-14" value="" style="endArrow=none;html=1;rounded=0;entryX=1;entryY=1;entryDx=0;entryDy=0;exitX=0;exitY=0;exitDx=0;exitDy=0;strokeColor=#F7C97E;strokeWidth=1.5;movable=1;resizable=1;rotatable=1;deletable=1;editable=1;locked=0;connectable=1;" edge="1" parent="1" source="GOoZsCCYg1d0ssd65Wgo-35" target="GOoZsCCYg1d0ssd65Wgo-36">
          <mxGeometry width="50" height="50" relative="1" as="geometry">
            <mxPoint x="165" y="-1020" as="sourcePoint" />
            <mxPoint x="211.875" y="-1065" as="targetPoint" />
          </mxGeometry>
        </mxCell>
        <mxCell id="GOoZsCCYg1d0ssd65Wgo-15" value="" style="endArrow=none;html=1;rounded=0;exitX=0;exitY=0;exitDx=0;exitDy=0;strokeColor=#D3E2B7;strokeWidth=1.5;movable=1;resizable=1;rotatable=1;deletable=1;editable=1;locked=0;connectable=1;" edge="1" parent="1" source="GOoZsCCYg1d0ssd65Wgo-31">
          <mxGeometry width="50" height="50" relative="1" as="geometry">
            <mxPoint x="268.125" y="-1015.5" as="sourcePoint" />
            <mxPoint x="315" y="-1060.5" as="targetPoint" />
          </mxGeometry>
        </mxCell>
        <mxCell id="GOoZsCCYg1d0ssd65Wgo-16" value="" style="endArrow=none;html=1;rounded=0;entryX=0.5;entryY=0;entryDx=0;entryDy=0;exitX=0.5;exitY=1;exitDx=0;exitDy=0;strokeColor=#ECA8A9;strokeWidth=1.5;movable=1;resizable=1;rotatable=1;deletable=1;editable=1;locked=0;connectable=1;" edge="1" parent="1" source="GOoZsCCYg1d0ssd65Wgo-34" target="GOoZsCCYg1d0ssd65Wgo-33">
          <mxGeometry width="50" height="50" relative="1" as="geometry">
            <mxPoint x="183.75" y="-1029" as="sourcePoint" />
            <mxPoint x="230.625" y="-1074" as="targetPoint" />
          </mxGeometry>
        </mxCell>
        <mxCell id="GOoZsCCYg1d0ssd65Wgo-17" value="" style="endArrow=none;html=1;rounded=0;entryX=0;entryY=0.5;entryDx=0;entryDy=0;exitX=1;exitY=0;exitDx=0;exitDy=0;strokeColor=#ECA8A9;strokeWidth=1.5;movable=1;resizable=1;rotatable=1;deletable=1;editable=1;locked=0;connectable=1;" edge="1" parent="1" source="GOoZsCCYg1d0ssd65Wgo-36" target="GOoZsCCYg1d0ssd65Wgo-33">
          <mxGeometry width="50" height="50" relative="1" as="geometry">
            <mxPoint x="165" y="-1020" as="sourcePoint" />
            <mxPoint x="211.875" y="-1065" as="targetPoint" />
          </mxGeometry>
        </mxCell>
        <mxCell id="GOoZsCCYg1d0ssd65Wgo-18" value="" style="endArrow=none;html=1;rounded=0;entryX=0;entryY=1;entryDx=0;entryDy=0;exitX=0.5;exitY=0;exitDx=0;exitDy=0;strokeColor=#F7C97E;strokeWidth=1.5;movable=1;resizable=1;rotatable=1;deletable=1;editable=1;locked=0;connectable=1;" edge="1" parent="1" source="GOoZsCCYg1d0ssd65Wgo-37" target="GOoZsCCYg1d0ssd65Wgo-36">
          <mxGeometry width="50" height="50" relative="1" as="geometry">
            <mxPoint x="165" y="-1011" as="sourcePoint" />
            <mxPoint x="211.875" y="-1056" as="targetPoint" />
          </mxGeometry>
        </mxCell>
        <mxCell id="GOoZsCCYg1d0ssd65Wgo-19" value="" style="endArrow=none;html=1;rounded=0;entryX=0;entryY=1;entryDx=0;entryDy=0;exitX=0.5;exitY=0;exitDx=0;exitDy=0;strokeColor=#ECA8A9;strokeWidth=1.5;movable=1;resizable=1;rotatable=1;deletable=1;editable=1;locked=0;connectable=1;" edge="1" parent="1" source="GOoZsCCYg1d0ssd65Wgo-30" target="GOoZsCCYg1d0ssd65Wgo-28">
          <mxGeometry width="50" height="50" relative="1" as="geometry">
            <mxPoint x="146.25" y="-993" as="sourcePoint" />
            <mxPoint x="193.125" y="-1038" as="targetPoint" />
          </mxGeometry>
        </mxCell>
        <mxCell id="GOoZsCCYg1d0ssd65Wgo-20" value="" style="endArrow=none;html=1;rounded=0;entryX=0.284;entryY=0.97;entryDx=0;entryDy=0;entryPerimeter=0;exitX=0.68;exitY=-0.007;exitDx=0;exitDy=0;exitPerimeter=0;strokeColor=#74AED4;strokeWidth=1.5;movable=1;resizable=1;rotatable=1;deletable=1;editable=1;locked=0;connectable=1;" edge="1" parent="1" source="GOoZsCCYg1d0ssd65Wgo-30" target="GOoZsCCYg1d0ssd65Wgo-28">
          <mxGeometry width="50" height="50" relative="1" as="geometry">
            <mxPoint x="260" y="-1005" as="sourcePoint" />
            <mxPoint x="310" y="-1055" as="targetPoint" />
          </mxGeometry>
        </mxCell>
        <mxCell id="GOoZsCCYg1d0ssd65Wgo-21" value="" style="endArrow=none;html=1;rounded=0;entryX=1.001;entryY=0.616;entryDx=0;entryDy=0;exitX=0.098;exitY=0.233;exitDx=0;exitDy=0;strokeColor=#ECA8A9;entryPerimeter=0;exitPerimeter=0;strokeWidth=1.5;movable=1;resizable=1;rotatable=1;deletable=1;editable=1;locked=0;connectable=1;" edge="1" parent="1" source="GOoZsCCYg1d0ssd65Wgo-30" target="GOoZsCCYg1d0ssd65Wgo-32">
          <mxGeometry width="50" height="50" relative="1" as="geometry">
            <mxPoint x="174.375" y="-957" as="sourcePoint" />
            <mxPoint x="221.25" y="-1002" as="targetPoint" />
          </mxGeometry>
        </mxCell>
        <mxCell id="GOoZsCCYg1d0ssd65Wgo-22" value="" style="endArrow=none;html=1;rounded=0;entryX=0.952;entryY=0.777;entryDx=0;entryDy=0;entryPerimeter=0;exitX=0.023;exitY=0.382;exitDx=0;exitDy=0;exitPerimeter=0;strokeColor=#74AED4;strokeWidth=1.5;movable=1;resizable=1;rotatable=1;deletable=1;editable=1;locked=0;connectable=1;" edge="1" parent="1" source="GOoZsCCYg1d0ssd65Wgo-30" target="GOoZsCCYg1d0ssd65Wgo-32">
          <mxGeometry width="50" height="50" relative="1" as="geometry">
            <mxPoint x="270" y="-1005" as="sourcePoint" />
            <mxPoint x="320" y="-1055" as="targetPoint" />
          </mxGeometry>
        </mxCell>
        <mxCell id="GOoZsCCYg1d0ssd65Wgo-23" value="" style="endArrow=none;html=1;rounded=0;entryX=0;entryY=0;entryDx=0;entryDy=0;strokeColor=#ECA8A9;targetPerimeterSpacing=7;exitX=0.998;exitY=0.577;exitDx=0;exitDy=0;exitPerimeter=0;strokeWidth=1.5;movable=1;resizable=1;rotatable=1;deletable=1;editable=1;locked=0;connectable=1;" edge="1" parent="1" source="GOoZsCCYg1d0ssd65Wgo-33" target="GOoZsCCYg1d0ssd65Wgo-32">
          <mxGeometry width="50" height="50" relative="1" as="geometry">
            <mxPoint x="296" y="-1078" as="sourcePoint" />
            <mxPoint x="230.625" y="-1056" as="targetPoint" />
          </mxGeometry>
        </mxCell>
        <mxCell id="GOoZsCCYg1d0ssd65Wgo-24" value="" style="endArrow=none;html=1;rounded=0;exitX=0.993;exitY=0.771;exitDx=0;exitDy=0;exitPerimeter=0;entryX=0.069;entryY=0.305;entryDx=0;entryDy=0;entryPerimeter=0;strokeColor=#74AED4;strokeWidth=1.5;movable=1;resizable=1;rotatable=1;deletable=1;editable=1;locked=0;connectable=1;" edge="1" parent="1" source="GOoZsCCYg1d0ssd65Wgo-33" target="GOoZsCCYg1d0ssd65Wgo-32">
          <mxGeometry width="50" height="50" relative="1" as="geometry">
            <mxPoint x="270" y="-1025" as="sourcePoint" />
            <mxPoint x="320" y="-1075" as="targetPoint" />
          </mxGeometry>
        </mxCell>
        <mxCell id="GOoZsCCYg1d0ssd65Wgo-25" value="" style="ellipse;whiteSpace=wrap;html=1;aspect=fixed;container=0;fillColor=#E6E6E6;movable=1;resizable=1;rotatable=1;deletable=1;editable=1;locked=0;connectable=1;" vertex="1" parent="1">
          <mxGeometry x="371.25" y="-1087.5" width="9" height="9" as="geometry" />
        </mxCell>
        <mxCell id="GOoZsCCYg1d0ssd65Wgo-26" value="" style="ellipse;whiteSpace=wrap;html=1;aspect=fixed;rotation=-45;container=0;fillColor=#E6E6E6;movable=1;resizable=1;rotatable=1;deletable=1;editable=1;locked=0;connectable=1;" vertex="1" parent="1">
          <mxGeometry x="333.75" y="-1096.5" width="9" height="9" as="geometry" />
        </mxCell>
        <mxCell id="GOoZsCCYg1d0ssd65Wgo-27" value="" style="ellipse;whiteSpace=wrap;html=1;aspect=fixed;container=0;fillColor=#E6E6E6;movable=1;resizable=1;rotatable=1;deletable=1;editable=1;locked=0;connectable=1;" vertex="1" parent="1">
          <mxGeometry x="371.25" y="-1060.5" width="9" height="9" as="geometry" />
        </mxCell>
        <mxCell id="GOoZsCCYg1d0ssd65Wgo-28" value="" style="ellipse;whiteSpace=wrap;html=1;aspect=fixed;container=0;fillColor=#E6E6E6;movable=1;resizable=1;rotatable=1;deletable=1;editable=1;locked=0;connectable=1;" vertex="1" parent="1">
          <mxGeometry x="343.125" y="-1078.5" width="9" height="9" as="geometry" />
        </mxCell>
        <mxCell id="GOoZsCCYg1d0ssd65Wgo-29" value="" style="ellipse;whiteSpace=wrap;html=1;aspect=fixed;container=0;fillColor=#E6E6E6;movable=1;resizable=1;rotatable=1;deletable=1;editable=1;locked=0;connectable=1;" vertex="1" parent="1">
          <mxGeometry x="352.5" y="-1042.5" width="9" height="9" as="geometry" />
        </mxCell>
        <mxCell id="GOoZsCCYg1d0ssd65Wgo-30" value="" style="ellipse;whiteSpace=wrap;html=1;aspect=fixed;container=0;fillColor=#E6E6E6;movable=1;resizable=1;rotatable=1;deletable=1;editable=1;locked=0;connectable=1;" vertex="1" parent="1">
          <mxGeometry x="333.75" y="-1056" width="9" height="9" as="geometry" />
        </mxCell>
        <mxCell id="GOoZsCCYg1d0ssd65Wgo-31" value="" style="ellipse;whiteSpace=wrap;html=1;aspect=fixed;rotation=15;container=0;fillColor=#E6E6E6;movable=1;resizable=1;rotatable=1;deletable=1;editable=1;locked=0;connectable=1;" vertex="1" parent="1">
          <mxGeometry x="324.375" y="-1033.5" width="9" height="9" as="geometry" />
        </mxCell>
        <mxCell id="GOoZsCCYg1d0ssd65Wgo-32" value="" style="ellipse;whiteSpace=wrap;html=1;aspect=fixed;fillColor=#FF6666;container=0;movable=1;resizable=1;rotatable=1;deletable=1;editable=1;locked=0;connectable=1;" vertex="1" parent="1">
          <mxGeometry x="310.3125" y="-1069.5" width="9" height="9" as="geometry" />
        </mxCell>
        <mxCell id="GOoZsCCYg1d0ssd65Wgo-33" value="" style="ellipse;whiteSpace=wrap;html=1;aspect=fixed;container=0;fillColor=#E6E6E6;movable=1;resizable=1;rotatable=1;deletable=1;editable=1;locked=0;connectable=1;" vertex="1" parent="1">
          <mxGeometry x="286.875" y="-1083" width="9" height="9" as="geometry" />
        </mxCell>
        <mxCell id="GOoZsCCYg1d0ssd65Wgo-34" value="" style="ellipse;whiteSpace=wrap;html=1;aspect=fixed;container=0;fillColor=#E6E6E6;movable=1;resizable=1;rotatable=1;deletable=1;editable=1;locked=0;connectable=1;" vertex="1" parent="1">
          <mxGeometry x="286.875" y="-1101" width="9" height="9" as="geometry" />
        </mxCell>
        <mxCell id="GOoZsCCYg1d0ssd65Wgo-35" value="" style="ellipse;whiteSpace=wrap;html=1;aspect=fixed;container=0;fillColor=#E6E6E6;movable=1;resizable=1;rotatable=1;deletable=1;editable=1;locked=0;connectable=1;" vertex="1" parent="1">
          <mxGeometry x="277.5" y="-1060.5" width="9" height="9" as="geometry" />
        </mxCell>
        <mxCell id="GOoZsCCYg1d0ssd65Wgo-36" value="" style="ellipse;whiteSpace=wrap;html=1;aspect=fixed;container=0;fillColor=#E6E6E6;movable=1;resizable=1;rotatable=1;deletable=1;editable=1;locked=0;connectable=1;" vertex="1" parent="1">
          <mxGeometry x="258.75" y="-1074" width="9" height="9" as="geometry" />
        </mxCell>
        <mxCell id="GOoZsCCYg1d0ssd65Wgo-37" value="" style="ellipse;whiteSpace=wrap;html=1;aspect=fixed;container=0;fillColor=#E6E6E6;movable=1;resizable=1;rotatable=1;deletable=1;editable=1;locked=0;connectable=1;" vertex="1" parent="1">
          <mxGeometry x="249.375" y="-1051.5" width="9" height="9" as="geometry" />
        </mxCell>
        <mxCell id="GOoZsCCYg1d0ssd65Wgo-38" value="" style="endArrow=none;dashed=1;html=1;rounded=0;entryX=0;entryY=0.5;entryDx=0;entryDy=0;exitX=1;exitY=0;exitDx=0;exitDy=0;strokeColor=#808080;movable=1;resizable=1;rotatable=1;deletable=1;editable=1;locked=0;connectable=1;" edge="1" parent="1" source="GOoZsCCYg1d0ssd65Wgo-32" target="GOoZsCCYg1d0ssd65Wgo-26">
          <mxGeometry width="50" height="50" relative="1" as="geometry">
            <mxPoint x="165" y="-1011" as="sourcePoint" />
            <mxPoint x="211.875" y="-1056" as="targetPoint" />
          </mxGeometry>
        </mxCell>
        <mxCell id="GOoZsCCYg1d0ssd65Wgo-39" value="" style="endArrow=none;dashed=1;html=1;rounded=0;entryX=0;entryY=0;entryDx=0;entryDy=0;exitX=1;exitY=0.5;exitDx=0;exitDy=0;strokeColor=#808080;movable=1;resizable=1;rotatable=1;deletable=1;editable=1;locked=0;connectable=1;" edge="1" parent="1" source="GOoZsCCYg1d0ssd65Wgo-34" target="GOoZsCCYg1d0ssd65Wgo-26">
          <mxGeometry width="50" height="50" relative="1" as="geometry">
            <mxPoint x="165" y="-1038" as="sourcePoint" />
            <mxPoint x="211.875" y="-1083" as="targetPoint" />
          </mxGeometry>
        </mxCell>
        <mxCell id="GOoZsCCYg1d0ssd65Wgo-41" value="" style="html=1;shadow=0;dashed=0;align=center;verticalAlign=middle;shape=mxgraph.arrows2.arrow;dy=0.81;dx=12.12;notch=0;rotation=-240;" vertex="1" parent="1">
          <mxGeometry x="248.61" y="-1010" width="29.28" height="15.91" as="geometry" />
        </mxCell>
        <mxCell id="GOoZsCCYg1d0ssd65Wgo-42" value="" style="html=1;shadow=0;dashed=0;align=center;verticalAlign=middle;shape=mxgraph.arrows2.arrow;dy=0.81;dx=12.12;notch=0;rotation=150;flipH=0;flipV=0;direction=north;" vertex="1" parent="1">
          <mxGeometry x="361.50500000000005" y="-1016.685" width="15.91" height="29.28" as="geometry" />
        </mxCell>
        <mxCell id="GOoZsCCYg1d0ssd65Wgo-43" value="" style="ellipse;whiteSpace=wrap;html=1;aspect=fixed;container=0;fillColor=#E6E6E6;movable=1;resizable=1;rotatable=1;deletable=1;editable=1;locked=0;connectable=1;" vertex="1" parent="1">
          <mxGeometry x="230.005" y="-960" width="9" height="9" as="geometry" />
        </mxCell>
        <mxCell id="GOoZsCCYg1d0ssd65Wgo-44" value="" style="ellipse;whiteSpace=wrap;html=1;aspect=fixed;container=0;fillColor=#E6E6E6;movable=1;resizable=1;rotatable=1;deletable=1;editable=1;locked=0;connectable=1;" vertex="1" parent="1">
          <mxGeometry x="239.615" y="-980" width="9" height="9" as="geometry" />
        </mxCell>
        <mxCell id="GOoZsCCYg1d0ssd65Wgo-45" value="" style="ellipse;whiteSpace=wrap;html=1;aspect=fixed;container=0;fillColor=#E6E6E6;movable=1;resizable=1;rotatable=1;deletable=1;editable=1;locked=0;connectable=1;" vertex="1" parent="1">
          <mxGeometry x="239.005" y="-940" width="9" height="9" as="geometry" />
        </mxCell>
        <mxCell id="GOoZsCCYg1d0ssd65Wgo-46" value="" style="ellipse;whiteSpace=wrap;html=1;aspect=fixed;container=0;fillColor=#E6E6E6;movable=1;resizable=1;rotatable=1;deletable=1;editable=1;locked=0;connectable=1;" vertex="1" parent="1">
          <mxGeometry x="277.495" y="-960" width="9" height="9" as="geometry" />
        </mxCell>
        <mxCell id="GOoZsCCYg1d0ssd65Wgo-47" value="" style="ellipse;whiteSpace=wrap;html=1;aspect=fixed;container=0;fillColor=#E6E6E6;movable=1;resizable=1;rotatable=1;deletable=1;editable=1;locked=0;connectable=1;" vertex="1" parent="1">
          <mxGeometry x="268.885" y="-980" width="9" height="9" as="geometry" />
        </mxCell>
        <mxCell id="GOoZsCCYg1d0ssd65Wgo-48" value="" style="ellipse;whiteSpace=wrap;html=1;aspect=fixed;container=0;fillColor=#E6E6E6;movable=1;resizable=1;rotatable=1;deletable=1;editable=1;locked=0;connectable=1;" vertex="1" parent="1">
          <mxGeometry x="286.875" y="-940" width="9" height="9" as="geometry" />
        </mxCell>
        <mxCell id="GOoZsCCYg1d0ssd65Wgo-49" value="" style="ellipse;whiteSpace=wrap;html=1;aspect=fixed;container=0;fillColor=#E6E6E6;movable=1;resizable=1;rotatable=1;deletable=1;editable=1;locked=0;connectable=1;" vertex="1" parent="1">
          <mxGeometry x="268.885" y="-940" width="9" height="9" as="geometry" />
        </mxCell>
        <mxCell id="GOoZsCCYg1d0ssd65Wgo-50" value="" style="ellipse;whiteSpace=wrap;html=1;aspect=fixed;container=0;fillColor=#E6E6E6;movable=1;resizable=1;rotatable=1;deletable=1;editable=1;locked=0;connectable=1;" vertex="1" parent="1">
          <mxGeometry x="319.565" y="-960" width="9" height="9" as="geometry" />
        </mxCell>
        <mxCell id="GOoZsCCYg1d0ssd65Wgo-51" value="" style="ellipse;whiteSpace=wrap;html=1;aspect=fixed;container=0;fillColor=#E6E6E6;movable=1;resizable=1;rotatable=1;deletable=1;editable=1;locked=0;connectable=1;" vertex="1" parent="1">
          <mxGeometry x="329.175" y="-980" width="9" height="9" as="geometry" />
        </mxCell>
        <mxCell id="GOoZsCCYg1d0ssd65Wgo-52" value="" style="ellipse;whiteSpace=wrap;html=1;aspect=fixed;container=0;fillColor=#E6E6E6;movable=1;resizable=1;rotatable=1;deletable=1;editable=1;locked=0;connectable=1;" vertex="1" parent="1">
          <mxGeometry x="328.565" y="-940" width="9" height="9" as="geometry" />
        </mxCell>
        <mxCell id="GOoZsCCYg1d0ssd65Wgo-53" value="" style="ellipse;whiteSpace=wrap;html=1;aspect=fixed;container=0;fillColor=#E6E6E6;movable=1;resizable=1;rotatable=1;deletable=1;editable=1;locked=0;connectable=1;" vertex="1" parent="1">
          <mxGeometry x="310.565" y="-940" width="9" height="9" as="geometry" />
        </mxCell>
        <mxCell id="GOoZsCCYg1d0ssd65Wgo-54" value="" style="ellipse;whiteSpace=wrap;html=1;aspect=fixed;container=0;fillColor=#E6E6E6;movable=1;resizable=1;rotatable=1;deletable=1;editable=1;locked=0;connectable=1;" vertex="1" parent="1">
          <mxGeometry x="310.315" y="-980" width="9" height="9" as="geometry" />
        </mxCell>
        <mxCell id="GOoZsCCYg1d0ssd65Wgo-55" value="" style="ellipse;whiteSpace=wrap;html=1;aspect=fixed;container=0;fillColor=#E6E6E6;movable=1;resizable=1;rotatable=1;deletable=1;editable=1;locked=0;connectable=1;" vertex="1" parent="1">
          <mxGeometry x="352.125" y="-971" width="9" height="9" as="geometry" />
        </mxCell>
        <mxCell id="GOoZsCCYg1d0ssd65Wgo-56" value="" style="ellipse;whiteSpace=wrap;html=1;aspect=fixed;container=0;fillColor=#E6E6E6;movable=1;resizable=1;rotatable=1;deletable=1;editable=1;locked=0;connectable=1;" vertex="1" parent="1">
          <mxGeometry x="364.965" y="-980" width="9" height="9" as="geometry" />
        </mxCell>
        <mxCell id="GOoZsCCYg1d0ssd65Wgo-57" value="" style="ellipse;whiteSpace=wrap;html=1;aspect=fixed;container=0;fillColor=#E6E6E6;movable=1;resizable=1;rotatable=1;deletable=1;editable=1;locked=0;connectable=1;" vertex="1" parent="1">
          <mxGeometry x="364.965" y="-960" width="9" height="9" as="geometry" />
        </mxCell>
        <mxCell id="GOoZsCCYg1d0ssd65Wgo-58" value="" style="ellipse;whiteSpace=wrap;html=1;aspect=fixed;container=0;fillColor=#E6E6E6;movable=1;resizable=1;rotatable=1;deletable=1;editable=1;locked=0;connectable=1;" vertex="1" parent="1">
          <mxGeometry x="355.965" y="-949" width="9" height="9" as="geometry" />
        </mxCell>
        <mxCell id="GOoZsCCYg1d0ssd65Wgo-59" value="" style="ellipse;whiteSpace=wrap;html=1;aspect=fixed;container=0;fillColor=#E6E6E6;movable=1;resizable=1;rotatable=1;deletable=1;editable=1;locked=0;connectable=1;" vertex="1" parent="1">
          <mxGeometry x="368.415" y="-940" width="9" height="9" as="geometry" />
        </mxCell>
        <mxCell id="GOoZsCCYg1d0ssd65Wgo-60" value="" style="ellipse;whiteSpace=wrap;html=1;aspect=fixed;container=0;fillColor=#E6E6E6;movable=1;resizable=1;rotatable=1;deletable=1;editable=1;locked=0;connectable=1;" vertex="1" parent="1">
          <mxGeometry x="389.995" y="-989" width="9" height="9" as="geometry" />
        </mxCell>
        <mxCell id="GOoZsCCYg1d0ssd65Wgo-61" value="" style="ellipse;whiteSpace=wrap;html=1;aspect=fixed;container=0;fillColor=#E6E6E6;movable=1;resizable=1;rotatable=1;deletable=1;editable=1;locked=0;connectable=1;" vertex="1" parent="1">
          <mxGeometry x="404.995" y="-1003.09" width="9" height="9" as="geometry" />
        </mxCell>
        <mxCell id="GOoZsCCYg1d0ssd65Wgo-62" value="" style="ellipse;whiteSpace=wrap;html=1;aspect=fixed;container=0;fillColor=#E6E6E6;movable=1;resizable=1;rotatable=1;deletable=1;editable=1;locked=0;connectable=1;" vertex="1" parent="1">
          <mxGeometry x="408.995" y="-980" width="9" height="9" as="geometry" />
        </mxCell>
        <mxCell id="GOoZsCCYg1d0ssd65Wgo-63" value="" style="ellipse;whiteSpace=wrap;html=1;aspect=fixed;container=0;fillColor=#E6E6E6;movable=1;resizable=1;rotatable=1;deletable=1;editable=1;locked=0;connectable=1;" vertex="1" parent="1">
          <mxGeometry x="399.995" y="-960" width="9" height="9" as="geometry" />
        </mxCell>
        <mxCell id="GOoZsCCYg1d0ssd65Wgo-64" value="" style="ellipse;whiteSpace=wrap;html=1;aspect=fixed;container=0;fillColor=#E6E6E6;movable=1;resizable=1;rotatable=1;deletable=1;editable=1;locked=0;connectable=1;" vertex="1" parent="1">
          <mxGeometry x="408.995" y="-949" width="9" height="9" as="geometry" />
        </mxCell>
        <mxCell id="GOoZsCCYg1d0ssd65Wgo-65" value="" style="ellipse;whiteSpace=wrap;html=1;aspect=fixed;container=0;fillColor=#E6E6E6;movable=1;resizable=1;rotatable=1;deletable=1;editable=1;locked=0;connectable=1;" vertex="1" parent="1">
          <mxGeometry x="390.995" y="-940" width="9" height="9" as="geometry" />
        </mxCell>
        <mxCell id="GOoZsCCYg1d0ssd65Wgo-66" value="" style="ellipse;whiteSpace=wrap;html=1;aspect=fixed;container=0;fillColor=#E6E6E6;movable=1;resizable=1;rotatable=1;deletable=1;editable=1;locked=0;connectable=1;" vertex="1" parent="1">
          <mxGeometry x="404.995" y="-931" width="9" height="9" as="geometry" />
        </mxCell>
        <mxCell id="GOoZsCCYg1d0ssd65Wgo-67" value="" style="ellipse;whiteSpace=wrap;html=1;aspect=fixed;container=0;fillColor=#E6E6E6;movable=1;resizable=1;rotatable=1;deletable=1;editable=1;locked=0;connectable=1;" vertex="1" parent="1">
          <mxGeometry x="439.995" y="-960" width="9" height="9" as="geometry" />
        </mxCell>
        <mxCell id="GOoZsCCYg1d0ssd65Wgo-68" value="" style="ellipse;whiteSpace=wrap;html=1;aspect=fixed;container=0;fillColor=#E6E6E6;movable=1;resizable=1;rotatable=1;deletable=1;editable=1;locked=0;connectable=1;" vertex="1" parent="1">
          <mxGeometry x="430.995" y="-949" width="9" height="9" as="geometry" />
        </mxCell>
        <mxCell id="GOoZsCCYg1d0ssd65Wgo-69" value="" style="ellipse;whiteSpace=wrap;html=1;aspect=fixed;container=0;fillColor=#E6E6E6;movable=1;resizable=1;rotatable=1;deletable=1;editable=1;locked=0;connectable=1;" vertex="1" parent="1">
          <mxGeometry x="448.995" y="-940" width="9" height="9" as="geometry" />
        </mxCell>
        <mxCell id="GOoZsCCYg1d0ssd65Wgo-70" value="" style="ellipse;whiteSpace=wrap;html=1;aspect=fixed;container=0;fillColor=#E6E6E6;movable=1;resizable=1;rotatable=1;deletable=1;editable=1;locked=0;connectable=1;" vertex="1" parent="1">
          <mxGeometry x="439.995" y="-922" width="9" height="9" as="geometry" />
        </mxCell>
        <mxCell id="GOoZsCCYg1d0ssd65Wgo-71" value="" style="ellipse;whiteSpace=wrap;html=1;aspect=fixed;container=0;fillColor=#E6E6E6;movable=1;resizable=1;rotatable=1;deletable=1;editable=1;locked=0;connectable=1;" vertex="1" parent="1">
          <mxGeometry x="448.995" y="-980" width="9" height="9" as="geometry" />
        </mxCell>
        <mxCell id="GOoZsCCYg1d0ssd65Wgo-72" value="" style="ellipse;whiteSpace=wrap;html=1;aspect=fixed;container=0;fillColor=#E6E6E6;movable=1;resizable=1;rotatable=1;deletable=1;editable=1;locked=0;connectable=1;" vertex="1" parent="1">
          <mxGeometry x="439.995" y="-994.09" width="9" height="9" as="geometry" />
        </mxCell>
        <mxCell id="GOoZsCCYg1d0ssd65Wgo-73" value="" style="endArrow=none;html=1;rounded=0;entryX=0;entryY=1;entryDx=0;entryDy=0;" edge="1" parent="1" target="GOoZsCCYg1d0ssd65Wgo-44">
          <mxGeometry width="50" height="50" relative="1" as="geometry">
            <mxPoint x="235.76" y="-960" as="sourcePoint" />
            <mxPoint x="248.01" y="-979" as="targetPoint" />
          </mxGeometry>
        </mxCell>
        <mxCell id="GOoZsCCYg1d0ssd65Wgo-74" value="" style="endArrow=none;html=1;rounded=0;entryX=0.5;entryY=1;entryDx=0;entryDy=0;exitX=0;exitY=0;exitDx=0;exitDy=0;" edge="1" parent="1" source="GOoZsCCYg1d0ssd65Wgo-45" target="GOoZsCCYg1d0ssd65Wgo-43">
          <mxGeometry width="50" height="50" relative="1" as="geometry">
            <mxPoint x="230" y="-910" as="sourcePoint" />
            <mxPoint x="280" y="-960" as="targetPoint" />
          </mxGeometry>
        </mxCell>
        <mxCell id="GOoZsCCYg1d0ssd65Wgo-75" value="" style="endArrow=none;html=1;rounded=0;entryX=0.5;entryY=1;entryDx=0;entryDy=0;exitX=0;exitY=0;exitDx=0;exitDy=0;" edge="1" parent="1" source="GOoZsCCYg1d0ssd65Wgo-46" target="GOoZsCCYg1d0ssd65Wgo-47">
          <mxGeometry width="50" height="50" relative="1" as="geometry">
            <mxPoint x="240" y="-920" as="sourcePoint" />
            <mxPoint x="290" y="-970" as="targetPoint" />
          </mxGeometry>
        </mxCell>
        <mxCell id="GOoZsCCYg1d0ssd65Wgo-76" value="" style="endArrow=none;html=1;rounded=0;entryX=0;entryY=1;entryDx=0;entryDy=0;exitX=0.5;exitY=0;exitDx=0;exitDy=0;" edge="1" parent="1" source="GOoZsCCYg1d0ssd65Wgo-49" target="GOoZsCCYg1d0ssd65Wgo-46">
          <mxGeometry width="50" height="50" relative="1" as="geometry">
            <mxPoint x="230" y="-900" as="sourcePoint" />
            <mxPoint x="280" y="-950" as="targetPoint" />
          </mxGeometry>
        </mxCell>
        <mxCell id="GOoZsCCYg1d0ssd65Wgo-77" value="" style="endArrow=none;html=1;rounded=0;entryX=1;entryY=1;entryDx=0;entryDy=0;exitX=0.5;exitY=0;exitDx=0;exitDy=0;" edge="1" parent="1" source="GOoZsCCYg1d0ssd65Wgo-48" target="GOoZsCCYg1d0ssd65Wgo-46">
          <mxGeometry width="50" height="50" relative="1" as="geometry">
            <mxPoint x="283" y="-930" as="sourcePoint" />
            <mxPoint x="289" y="-942" as="targetPoint" />
          </mxGeometry>
        </mxCell>
        <mxCell id="GOoZsCCYg1d0ssd65Wgo-78" value="" style="endArrow=none;html=1;rounded=0;entryX=0.5;entryY=1;entryDx=0;entryDy=0;" edge="1" parent="1" target="GOoZsCCYg1d0ssd65Wgo-54">
          <mxGeometry width="50" height="50" relative="1" as="geometry">
            <mxPoint x="315" y="-940" as="sourcePoint" />
            <mxPoint x="299" y="-932" as="targetPoint" />
          </mxGeometry>
        </mxCell>
        <mxCell id="GOoZsCCYg1d0ssd65Wgo-79" value="" style="endArrow=none;html=1;rounded=0;entryX=0.5;entryY=1;entryDx=0;entryDy=0;exitX=0;exitY=0;exitDx=0;exitDy=0;" edge="1" parent="1" source="GOoZsCCYg1d0ssd65Wgo-50" target="GOoZsCCYg1d0ssd65Wgo-54">
          <mxGeometry width="50" height="50" relative="1" as="geometry">
            <mxPoint x="303" y="-910" as="sourcePoint" />
            <mxPoint x="309" y="-922" as="targetPoint" />
          </mxGeometry>
        </mxCell>
        <mxCell id="GOoZsCCYg1d0ssd65Wgo-80" value="" style="endArrow=none;html=1;rounded=0;entryX=0;entryY=1;entryDx=0;entryDy=0;exitX=0.5;exitY=0;exitDx=0;exitDy=0;" edge="1" parent="1" source="GOoZsCCYg1d0ssd65Wgo-53" target="GOoZsCCYg1d0ssd65Wgo-50">
          <mxGeometry width="50" height="50" relative="1" as="geometry">
            <mxPoint x="313" y="-900" as="sourcePoint" />
            <mxPoint x="319" y="-912" as="targetPoint" />
          </mxGeometry>
        </mxCell>
        <mxCell id="GOoZsCCYg1d0ssd65Wgo-81" value="" style="endArrow=none;html=1;rounded=0;entryX=1;entryY=1;entryDx=0;entryDy=0;exitX=0.5;exitY=0;exitDx=0;exitDy=0;" edge="1" parent="1" source="GOoZsCCYg1d0ssd65Wgo-52" target="GOoZsCCYg1d0ssd65Wgo-50">
          <mxGeometry width="50" height="50" relative="1" as="geometry">
            <mxPoint x="323" y="-890" as="sourcePoint" />
            <mxPoint x="329" y="-902" as="targetPoint" />
          </mxGeometry>
        </mxCell>
        <mxCell id="GOoZsCCYg1d0ssd65Wgo-82" value="" style="endArrow=none;html=1;rounded=0;entryX=0.5;entryY=1;entryDx=0;entryDy=0;exitX=0.5;exitY=0;exitDx=0;exitDy=0;" edge="1" parent="1" source="GOoZsCCYg1d0ssd65Wgo-52" target="GOoZsCCYg1d0ssd65Wgo-51">
          <mxGeometry width="50" height="50" relative="1" as="geometry">
            <mxPoint x="343" y="-930" as="sourcePoint" />
            <mxPoint x="337" y="-942" as="targetPoint" />
          </mxGeometry>
        </mxCell>
        <mxCell id="GOoZsCCYg1d0ssd65Wgo-83" value="" style="endArrow=none;html=1;rounded=0;entryX=1;entryY=0;entryDx=0;entryDy=0;exitX=0;exitY=1;exitDx=0;exitDy=0;" edge="1" parent="1" source="GOoZsCCYg1d0ssd65Wgo-56" target="GOoZsCCYg1d0ssd65Wgo-55">
          <mxGeometry width="50" height="50" relative="1" as="geometry">
            <mxPoint x="353" y="-920" as="sourcePoint" />
            <mxPoint x="347" y="-932" as="targetPoint" />
          </mxGeometry>
        </mxCell>
        <mxCell id="GOoZsCCYg1d0ssd65Wgo-84" value="" style="endArrow=none;html=1;rounded=0;entryX=1;entryY=0;entryDx=0;entryDy=0;exitX=0.5;exitY=1;exitDx=0;exitDy=0;" edge="1" parent="1" source="GOoZsCCYg1d0ssd65Wgo-56">
          <mxGeometry width="50" height="50" relative="1" as="geometry">
            <mxPoint x="376" y="-962" as="sourcePoint" />
            <mxPoint x="370" y="-960" as="targetPoint" />
          </mxGeometry>
        </mxCell>
        <mxCell id="GOoZsCCYg1d0ssd65Wgo-85" value="" style="endArrow=none;html=1;rounded=0;entryX=1;entryY=0;entryDx=0;entryDy=0;exitX=0;exitY=1;exitDx=0;exitDy=0;" edge="1" parent="1" source="GOoZsCCYg1d0ssd65Wgo-57" target="GOoZsCCYg1d0ssd65Wgo-58">
          <mxGeometry width="50" height="50" relative="1" as="geometry">
            <mxPoint x="379" y="-961" as="sourcePoint" />
            <mxPoint x="380" y="-950" as="targetPoint" />
          </mxGeometry>
        </mxCell>
        <mxCell id="GOoZsCCYg1d0ssd65Wgo-86" value="" style="endArrow=none;html=1;rounded=0;entryX=0;entryY=0;entryDx=0;entryDy=0;exitX=1;exitY=1;exitDx=0;exitDy=0;" edge="1" parent="1" source="GOoZsCCYg1d0ssd65Wgo-58" target="GOoZsCCYg1d0ssd65Wgo-59">
          <mxGeometry width="50" height="50" relative="1" as="geometry">
            <mxPoint x="389" y="-951" as="sourcePoint" />
            <mxPoint x="390" y="-940" as="targetPoint" />
          </mxGeometry>
        </mxCell>
        <mxCell id="GOoZsCCYg1d0ssd65Wgo-87" value="" style="endArrow=none;html=1;rounded=0;entryX=1;entryY=0;entryDx=0;entryDy=0;exitX=0;exitY=1;exitDx=0;exitDy=0;" edge="1" parent="1" source="GOoZsCCYg1d0ssd65Wgo-61" target="GOoZsCCYg1d0ssd65Wgo-60">
          <mxGeometry width="50" height="50" relative="1" as="geometry">
            <mxPoint x="379" y="-961" as="sourcePoint" />
            <mxPoint x="380" y="-950" as="targetPoint" />
          </mxGeometry>
        </mxCell>
        <mxCell id="GOoZsCCYg1d0ssd65Wgo-88" value="" style="endArrow=none;html=1;rounded=0;entryX=0.5;entryY=0;entryDx=0;entryDy=0;exitX=0.5;exitY=1;exitDx=0;exitDy=0;" edge="1" parent="1" source="GOoZsCCYg1d0ssd65Wgo-61" target="GOoZsCCYg1d0ssd65Wgo-62">
          <mxGeometry width="50" height="50" relative="1" as="geometry">
            <mxPoint x="416" y="-985" as="sourcePoint" />
            <mxPoint x="408" y="-978" as="targetPoint" />
          </mxGeometry>
        </mxCell>
        <mxCell id="GOoZsCCYg1d0ssd65Wgo-89" value="" style="endArrow=none;html=1;rounded=0;entryX=1;entryY=1;entryDx=0;entryDy=0;exitX=0.011;exitY=0.41;exitDx=0;exitDy=0;exitPerimeter=0;" edge="1" parent="1" source="GOoZsCCYg1d0ssd65Wgo-62" target="GOoZsCCYg1d0ssd65Wgo-60">
          <mxGeometry width="50" height="50" relative="1" as="geometry">
            <mxPoint x="426" y="-975" as="sourcePoint" />
            <mxPoint x="418" y="-968" as="targetPoint" />
          </mxGeometry>
        </mxCell>
        <mxCell id="GOoZsCCYg1d0ssd65Wgo-90" value="" style="endArrow=none;html=1;rounded=0;entryX=0;entryY=1;entryDx=0;entryDy=0;exitX=0.713;exitY=0.022;exitDx=0;exitDy=0;exitPerimeter=0;" edge="1" parent="1" source="GOoZsCCYg1d0ssd65Wgo-63" target="GOoZsCCYg1d0ssd65Wgo-62">
          <mxGeometry width="50" height="50" relative="1" as="geometry">
            <mxPoint x="419" y="-966" as="sourcePoint" />
            <mxPoint x="408" y="-971" as="targetPoint" />
          </mxGeometry>
        </mxCell>
        <mxCell id="GOoZsCCYg1d0ssd65Wgo-91" value="" style="endArrow=none;html=1;rounded=0;entryX=0.757;entryY=0.962;entryDx=0;entryDy=0;exitX=0;exitY=0;exitDx=0;exitDy=0;entryPerimeter=0;" edge="1" parent="1" source="GOoZsCCYg1d0ssd65Wgo-64" target="GOoZsCCYg1d0ssd65Wgo-63">
          <mxGeometry width="50" height="50" relative="1" as="geometry">
            <mxPoint x="429" y="-956" as="sourcePoint" />
            <mxPoint x="418" y="-961" as="targetPoint" />
          </mxGeometry>
        </mxCell>
        <mxCell id="GOoZsCCYg1d0ssd65Wgo-92" value="" style="endArrow=none;html=1;rounded=0;entryX=1;entryY=0;entryDx=0;entryDy=0;exitX=0.041;exitY=0.739;exitDx=0;exitDy=0;exitPerimeter=0;" edge="1" parent="1" source="GOoZsCCYg1d0ssd65Wgo-64" target="GOoZsCCYg1d0ssd65Wgo-65">
          <mxGeometry width="50" height="50" relative="1" as="geometry">
            <mxPoint x="439" y="-946" as="sourcePoint" />
            <mxPoint x="428" y="-951" as="targetPoint" />
          </mxGeometry>
        </mxCell>
        <mxCell id="GOoZsCCYg1d0ssd65Wgo-93" value="" style="endArrow=none;html=1;rounded=0;entryX=1;entryY=1;entryDx=0;entryDy=0;exitX=0.023;exitY=0.275;exitDx=0;exitDy=0;exitPerimeter=0;" edge="1" parent="1" source="GOoZsCCYg1d0ssd65Wgo-66" target="GOoZsCCYg1d0ssd65Wgo-65">
          <mxGeometry width="50" height="50" relative="1" as="geometry">
            <mxPoint x="449" y="-936" as="sourcePoint" />
            <mxPoint x="438" y="-941" as="targetPoint" />
          </mxGeometry>
        </mxCell>
        <mxCell id="GOoZsCCYg1d0ssd65Wgo-94" value="" style="endArrow=none;html=1;rounded=0;entryX=1;entryY=1;entryDx=0;entryDy=0;exitX=0;exitY=0.5;exitDx=0;exitDy=0;" edge="1" parent="1" source="GOoZsCCYg1d0ssd65Wgo-69" target="GOoZsCCYg1d0ssd65Wgo-68">
          <mxGeometry width="50" height="50" relative="1" as="geometry">
            <mxPoint x="459" y="-926" as="sourcePoint" />
            <mxPoint x="448" y="-931" as="targetPoint" />
          </mxGeometry>
        </mxCell>
        <mxCell id="GOoZsCCYg1d0ssd65Wgo-95" value="" style="endArrow=none;html=1;rounded=0;entryX=1;entryY=1;entryDx=0;entryDy=0;exitX=0.354;exitY=0.007;exitDx=0;exitDy=0;exitPerimeter=0;" edge="1" parent="1" source="GOoZsCCYg1d0ssd65Wgo-69" target="GOoZsCCYg1d0ssd65Wgo-67">
          <mxGeometry width="50" height="50" relative="1" as="geometry">
            <mxPoint x="469" y="-916" as="sourcePoint" />
            <mxPoint x="458" y="-921" as="targetPoint" />
          </mxGeometry>
        </mxCell>
        <mxCell id="GOoZsCCYg1d0ssd65Wgo-96" value="" style="endArrow=none;html=1;rounded=0;entryX=0.684;entryY=0.023;entryDx=0;entryDy=0;exitX=0;exitY=1;exitDx=0;exitDy=0;entryPerimeter=0;" edge="1" parent="1" source="GOoZsCCYg1d0ssd65Wgo-67" target="GOoZsCCYg1d0ssd65Wgo-68">
          <mxGeometry width="50" height="50" relative="1" as="geometry">
            <mxPoint x="479" y="-906" as="sourcePoint" />
            <mxPoint x="468" y="-911" as="targetPoint" />
          </mxGeometry>
        </mxCell>
        <mxCell id="GOoZsCCYg1d0ssd65Wgo-97" value="" style="endArrow=none;html=1;rounded=0;entryX=1;entryY=0;entryDx=0;entryDy=0;exitX=0.339;exitY=0.977;exitDx=0;exitDy=0;exitPerimeter=0;" edge="1" parent="1" source="GOoZsCCYg1d0ssd65Wgo-69" target="GOoZsCCYg1d0ssd65Wgo-70">
          <mxGeometry width="50" height="50" relative="1" as="geometry">
            <mxPoint x="489" y="-896" as="sourcePoint" />
            <mxPoint x="478" y="-901" as="targetPoint" />
          </mxGeometry>
        </mxCell>
        <mxCell id="GOoZsCCYg1d0ssd65Wgo-98" value="" style="endArrow=none;html=1;rounded=0;entryX=0.713;entryY=0.052;entryDx=0;entryDy=0;exitX=0.265;exitY=0.947;exitDx=0;exitDy=0;exitPerimeter=0;entryPerimeter=0;" edge="1" parent="1" source="GOoZsCCYg1d0ssd65Wgo-71" target="GOoZsCCYg1d0ssd65Wgo-67">
          <mxGeometry width="50" height="50" relative="1" as="geometry">
            <mxPoint x="462" y="-930" as="sourcePoint" />
            <mxPoint x="458" y="-942" as="targetPoint" />
          </mxGeometry>
        </mxCell>
        <mxCell id="GOoZsCCYg1d0ssd65Wgo-99" value="" style="endArrow=none;html=1;rounded=0;entryX=0.5;entryY=0;entryDx=0;entryDy=0;exitX=1;exitY=1;exitDx=0;exitDy=0;" edge="1" parent="1" source="GOoZsCCYg1d0ssd65Wgo-72" target="GOoZsCCYg1d0ssd65Wgo-71">
          <mxGeometry width="50" height="50" relative="1" as="geometry">
            <mxPoint x="472" y="-920" as="sourcePoint" />
            <mxPoint x="468" y="-932" as="targetPoint" />
          </mxGeometry>
        </mxCell>
      </root>
    </mxGraphModel>
  </diagram>
</mxfile>
